<svg width="330" height="330" xmlns="http://www.w3.org/2000/svg" xmlns:xlink="http://www.w3.org/1999/xlink" overflow="hidden"><defs><clipPath id="clip0"><rect x="1395" y="771" width="330" height="330"/></clipPath></defs><g clip-path="url(#clip0)" transform="translate(-1395 -771)"><path d="M1616.03 1008.53C1610.87 1003.38 1607.78 996.156 1607.78 988.938L1605.72 986.875C1574.44 1006.13 1534.56 1004.06 1505.34 981.719L1504.31 982.406C1500.53 985.156 1498.12 989.625 1498.12 994.438L1498.12 1025.38 1621.87 1025.38 1621.87 1014.38 1616.03 1008.53Z" fill="#FF9900"/><path d="M1647.66 906.781C1664.5 904.031 1675.84 887.875 1673.09 871.031 1670.34 854.188 1654.19 842.844 1637.34 845.594 1632.53 846.281 1628.06 848.344 1624.28 851.094 1638.37 866.219 1646.62 885.813 1647.66 906.781Z" fill="#FF9900"/><path d="M1698.19 933.938C1689.25 927.063 1678.94 921.906 1667.94 919.5 1661.41 917.438 1654.53 916.406 1647.66 915.719 1646.97 930.5 1642.5 944.938 1634.59 957.656L1636.66 959.719C1643.87 959.719 1651.09 962.813 1656.25 967.969L1665.53 977.25 1704.37 977.25 1704.37 946.313C1704.37 941.5 1702.31 936.688 1698.19 933.938Z" fill="#FF9900"/><path d="M1681.69 1007.84 1649.37 975.188C1644.91 971.063 1639.06 969 1632.87 970.375L1621.19 959.031C1631.84 945.281 1637.34 928.781 1637.34 911.594 1637.69 868.281 1602.62 832.875 1558.97 832.531 1515.31 832.188 1480.59 867.25 1480.59 910.563 1480.59 953.875 1515.31 989.281 1558.97 989.625 1576.16 989.625 1593 984.125 1607.09 973.469L1618.78 984.813C1617.75 990.656 1619.47 996.844 1623.59 1001.31L1656.25 1033.97C1663.12 1041.19 1674.81 1041.53 1682.03 1034.66 1689.25 1027.78 1689.59 1016.09 1682.72 1008.88 1682.37 1008.53 1682.03 1008.19 1681.69 1007.84L1681.69 1007.84ZM1559.31 848.688C1594.03 848.688 1621.87 876.531 1621.87 911.25 1621.87 926.031 1616.72 940.469 1607.09 951.469 1600.56 948.375 1594.03 945.969 1587.16 944.25 1577.87 941.5 1568.25 939.781 1558.62 939.781 1549 939.781 1539.37 941.5 1530.09 944.25 1523.56 945.969 1517.37 948.375 1511.53 951.813 1489.19 925.688 1492.28 886.156 1518.41 863.813 1529.75 853.844 1544.19 848.688 1559.31 848.688Z" fill="#FF9900"/><path d="M1593.34 897.5C1593.34 916.675 1577.8 932.219 1558.62 932.219 1539.45 932.219 1523.91 916.675 1523.91 897.5 1523.91 878.325 1539.45 862.781 1558.62 862.781 1577.8 862.781 1593.34 878.325 1593.34 897.5Z" fill="#FF9900"/><path d="M1470.62 915.719C1464.44 916.406 1458.25 917.438 1452.06 919.5 1441.41 922.594 1431.09 927.75 1421.81 933.938 1417.69 936.688 1415.62 941.5 1415.62 946.313L1415.62 977.25 1489.87 977.25C1491.25 975.188 1492.97 973.469 1495.03 972.094 1480.25 956.625 1471.66 936.688 1470.62 915.719Z" fill="#FF9900"/><path d="M1470.62 906.438C1471.66 885.469 1480.25 865.875 1494.69 850.406 1480.59 840.781 1461.34 844.563 1451.72 859 1442.09 873.438 1445.87 892.344 1460.31 901.969 1463.41 904.031 1466.84 905.406 1470.62 906.438Z" fill="#FF9900"/><path d="M1415.62 1018.5 1704.37 1018.5 1704.37 1032.25 1415.62 1032.25Z" fill="#C2C2C2" fill-opacity="0.5"/><path d="M1449.76 929.83C1446.33 929.561 1443.25 927.636 1441.51 924.674L1419.41 887.081C1418.69 885.817 1419.14 884.212 1420.4 883.498 1420.64 883.365 1420.89 883.269 1421.15 883.214L1429.27 881.495C1431.67 880.991 1434.16 881.626 1436.03 883.214L1465.83 908.741 1522.45 896.861 1464.78 848.863C1463.67 847.93 1463.52 846.269 1464.45 845.154 1464.83 844.701 1465.35 844.389 1465.93 844.267L1477.85 841.768C1480.02 841.308 1482.28 841.548 1484.31 842.455L1579.06 885.005 1658.83 868.281C1669.13 866.119 1697.56 873.585 1699.18 881.306 1701.88 894.173 1676.15 899.573 1676.15 899.573L1542.91 927.534C1520.97 932.139 1498.48 933.6 1476.12 931.875Z" fill="#C2C2C2" fill-opacity="0.5"/></g></svg>