<svg width="96" height="96" xmlns="http://www.w3.org/2000/svg" xmlns:xlink="http://www.w3.org/1999/xlink" overflow="hidden"><defs><clipPath id="clip0"><rect x="592" y="312" width="96" height="96"/></clipPath></defs><g clip-path="url(#clip0)" transform="translate(-592 -312)"><path d="M658 346 622 346 622 330 658 330 658 346ZM658 360 652 360 652 354 658 354 658 360ZM658 370 652 370 652 364 658 364 658 370ZM658 380 652 380 652 374 658 374 658 380ZM658 390 652 390 652 384 658 384 658 390ZM648 360 642 360 642 354 648 354 648 360ZM648 370 642 370 642 364 648 364 648 370ZM648 380 642 380 642 374 648 374 648 380ZM648 390 642 390 642 384 648 384 648 390ZM638 360 632 360 632 354 638 354 638 360ZM638 370 632 370 632 364 638 364 638 370ZM638 380 632 380 632 374 638 374 638 380ZM638 390 622 390 622 384 638 384 638 390ZM622 374 628 374 628 380 622 380 622 374ZM622 364 628 364 628 370 622 370 622 364ZM622 354 628 354 628 360 622 360 622 354ZM664 320 616 320C613.8 320 612 321.8 612 324L612 396C612 398.2 613.8 400 616 400L664 400C666.2 400 668 398.2 668 396L668 324C668 321.8 666.2 320 664 320Z" fill="#FF9900"/></g></svg>