<svg width="330" height="373" xmlns="http://www.w3.org/2000/svg" xmlns:xlink="http://www.w3.org/1999/xlink" overflow="hidden"><defs><clipPath id="clip0"><rect x="1395" y="771" width="330" height="373"/></clipPath><clipPath id="clip1"><rect x="1394" y="771" width="331" height="331"/></clipPath><clipPath id="clip2"><rect x="1394" y="771" width="331" height="331"/></clipPath><clipPath id="clip3"><rect x="1394" y="771" width="331" height="331"/></clipPath><clipPath id="clip4"><rect x="1394" y="814" width="331" height="330"/></clipPath><clipPath id="clip5"><rect x="1394" y="814" width="331" height="330"/></clipPath><clipPath id="clip6"><rect x="1394" y="814" width="331" height="330"/></clipPath></defs><g clip-path="url(#clip0)" transform="translate(-1395 -771)"><g clip-path="url(#clip1)"><g clip-path="url(#clip2)"><g clip-path="url(#clip3)"><path d="M1632.19 1066.55 1632.19 826 1615 826 1615 805.375 1505 805.375 1505 826 1487.81 826 1487.81 1066.55 1463.75 1066.55 1463.75 1073.42 1656.25 1073.42 1656.25 1066.55ZM1511.87 812.25 1608.12 812.25 1608.12 826 1511.87 826ZM1494.69 832.875 1625.31 832.875 1625.31 1066.55 1566.87 1066.55 1566.87 1028.81 1553.12 1028.81 1553.12 1066.55 1494.69 1066.55Z" fill="#FF9900"/><path d="M1518.75 925.688 1532.5 925.688 1532.5 946.313 1518.75 946.313Z" fill="#FF9900"/><path d="M1518.75 891.313 1532.5 891.313 1532.5 911.938 1518.75 911.938Z" fill="#FF9900"/><path d="M1518.75 960.063 1532.5 960.063 1532.5 980.688 1518.75 980.688Z" fill="#FF9900"/><path d="M1518.75 994.438 1532.5 994.438 1532.5 1015.06 1518.75 1015.06Z" fill="#FF9900"/><path d="M1553.12 925.688 1566.87 925.688 1566.87 946.313 1553.12 946.313Z" fill="#FF9900"/><path d="M1553.12 994.438 1566.87 994.438 1566.87 1015.06 1553.12 1015.06Z" fill="#FF9900"/><path d="M1587.5 1028.81 1601.25 1028.81 1601.25 1049.44 1587.5 1049.44Z" fill="#FF9900"/><path d="M1587.5 856.938 1601.25 856.938 1601.25 877.563 1587.5 877.563Z" fill="#FF9900"/><path d="M1553.12 960.063 1566.87 960.063 1566.87 980.688 1553.12 980.688Z" fill="#FF9900"/><path d="M1553.12 891.313 1566.87 891.313 1566.87 911.938 1553.12 911.938Z" fill="#FF9900"/><path d="M1553.12 856.938 1566.87 856.938 1566.87 877.563 1553.12 877.563Z" fill="#FF9900"/><path d="M1518.75 856.938 1532.5 856.938 1532.5 877.563 1518.75 877.563Z" fill="#FF9900"/><path d="M1518.75 1028.81 1532.5 1028.81 1532.5 1049.44 1518.75 1049.44Z" fill="#FF9900"/><path d="M1587.5 925.688 1601.25 925.688 1601.25 946.313 1587.5 946.313Z" fill="#FF9900"/><path d="M1587.5 960.063 1601.25 960.063 1601.25 980.688 1587.5 980.688Z" fill="#FF9900"/><path d="M1587.5 994.438 1601.25 994.438 1601.25 1015.06 1587.5 1015.06Z" fill="#FF9900"/><path d="M1587.5 891.313 1601.25 891.313 1601.25 911.938 1587.5 911.938Z" fill="#FF9900"/></g></g></g><g clip-path="url(#clip4)"><g clip-path="url(#clip5)"><g clip-path="url(#clip6)"><path d="M1415.62 1061.5 1704.37 1061.5 1704.37 1075.25 1415.62 1075.25Z" fill="#C2C2C2" fill-opacity="0.5"/><path d="M1449.76 972.83C1446.33 972.561 1443.25 970.636 1441.51 967.673L1419.41 930.081C1418.69 928.817 1419.14 927.212 1420.4 926.498 1420.64 926.365 1420.89 926.269 1421.15 926.214L1429.27 924.495C1431.67 923.991 1434.16 924.626 1436.03 926.214L1465.83 951.741 1522.45 939.861 1464.78 891.863C1463.67 890.93 1463.52 889.269 1464.45 888.154 1464.83 887.701 1465.35 887.389 1465.93 887.267L1477.85 884.768C1480.02 884.308 1482.28 884.548 1484.31 885.455L1579.06 928.005 1658.83 911.281C1669.13 909.119 1697.56 916.585 1699.18 924.306 1701.88 937.172 1676.15 942.573 1676.15 942.573L1542.91 970.533C1520.97 975.139 1498.48 976.6 1476.12 974.875Z" fill="#C2C2C2" fill-opacity="0.5"/></g></g></g></g></svg>