<svg width="96" height="96" xmlns="http://www.w3.org/2000/svg" xmlns:xlink="http://www.w3.org/1999/xlink" overflow="hidden"><defs><clipPath id="clip0"><rect x="592" y="312" width="96" height="96"/></clipPath></defs><g clip-path="url(#clip0)" transform="translate(-592 -312)"><path d="M599.431 376 609.506 369.025 619.581 376 616.094 364.376 624.756 356.844 633.418 364.376 629.931 376 640.006 369.025 650.081 376 646.594 364.376 655.256 356.844 663.918 364.376 660.431 376 670.506 369.025 680.581 376 677.093 364.376 686.006 356.626 674.381 356.626 670.506 345 666.631 356.626 643.881 356.626 640.006 345 636.131 356.626 613.381 356.626 609.506 345 605.631 356.626 594.006 356.626 602.918 364.376ZM666.631 358.625 668.072 358.625 668.528 357.258 670.506 351.325 672.484 357.258 672.939 358.625 680.658 358.625 675.781 362.866 674.807 363.713 675.178 364.95 677.024 371.105 671.644 367.381 670.506 366.593 669.367 367.381 663.987 371.105 665.834 364.95 666.205 363.713 665.231 362.866 660.354 358.625Z" fill="#FF9900"/></g></svg>