<svg width="330" height="348" xmlns="http://www.w3.org/2000/svg" xmlns:xlink="http://www.w3.org/1999/xlink" overflow="hidden"><defs><clipPath id="clip0"><rect x="1395" y="771" width="330" height="348"/></clipPath><clipPath id="clip1"><rect x="1394" y="771" width="331" height="331"/></clipPath><clipPath id="clip2"><rect x="1394" y="771" width="331" height="331"/></clipPath><clipPath id="clip3"><rect x="1394" y="771" width="331" height="331"/></clipPath><clipPath id="clip4"><rect x="1394" y="788" width="331" height="331"/></clipPath><clipPath id="clip5"><rect x="1394" y="788" width="331" height="331"/></clipPath><clipPath id="clip6"><rect x="1394" y="788" width="331" height="331"/></clipPath></defs><g clip-path="url(#clip0)" transform="translate(-1395 -771)"><g clip-path="url(#clip1)"><g clip-path="url(#clip2)"><g clip-path="url(#clip3)"><path d="M1547.43 966.529C1519.51 985.658 1493.77 994.135 1484.08 994.458L1484.77 1015.08C1500.7 1014.55 1531.96 1003.34 1563.83 980.206 1586.54 996.998 1612.89 1008.22 1640.74 1012.96L1644.36 992.65C1621.47 988.79 1599.69 980.034 1580.49 966.982 1611.71 940.351 1635.3 905.915 1648.86 867.188L1629.37 860.464C1616.63 897.082 1594.01 929.461 1564.01 954.016 1538.73 931.387 1518 899.219 1500.87 856.546L1481.73 864.232C1499.25 907.871 1521.02 941.844 1547.43 966.529Z" fill="#FF9900"/><path d="M1656.3 1076.35 1690.26 1042.61 1656.53 1008.64 1656.45 1032.34 1463.8 1032.34 1463.8 839.613 1487.43 839.534 1453.46 805.805 1419.73 839.764 1442.07 839.688 1443.18 839.685 1443.18 1052.97 1656.38 1052.97 1656.38 1054.01 1656.3 1076.35Z" fill="#FF9900"/></g></g></g><g clip-path="url(#clip4)"><g clip-path="url(#clip5)"><g clip-path="url(#clip6)"><path d="M1415.62 1036.5 1704.37 1036.5 1704.37 1050.25 1415.62 1050.25Z" fill="#C2C2C2" fill-opacity="0.5"/><path d="M1449.76 947.83C1446.33 947.561 1443.25 945.636 1441.51 942.673L1419.41 905.081C1418.69 903.817 1419.14 902.212 1420.4 901.498 1420.64 901.365 1420.89 901.269 1421.15 901.214L1429.27 899.495C1431.67 898.991 1434.16 899.625 1436.03 901.214L1465.83 926.74 1522.45 914.86 1464.78 866.863C1463.67 865.93 1463.52 864.269 1464.45 863.154 1464.83 862.701 1465.35 862.389 1465.93 862.267L1477.85 859.768C1480.02 859.307 1482.28 859.548 1484.31 860.455L1579.06 903.005 1658.83 886.281C1669.13 884.119 1697.56 891.585 1699.18 899.306 1701.88 912.172 1676.15 917.573 1676.15 917.573L1542.91 945.533C1520.97 950.139 1498.48 951.6 1476.12 949.875Z" fill="#C2C2C2" fill-opacity="0.5"/></g></g></g></g></svg>